<svg xmlns="http://www.w3.org/2000/svg" xmlns:xlink="http://www.w3.org/1999/xlink" width="200" height="200" class="icon" p-id="6626" t="1591698803593" version="1.1" viewBox="0 0 1024 1024"><defs><style type="text/css"/></defs><path fill="#506799" d="M1022.293364 470.409918a511.990827 511.990827 0 1 0-551.883445 551.883446 513.484133 513.484133 0 0 0 551.883445-551.883446zM736.00516 565.341551H618.673929a53.332378 53.332378 0 0 0-53.332378 53.332378v117.331231a53.332378 53.332378 0 0 1-106.664755 0V618.673929a53.332378 53.332378 0 0 0-53.332378-53.332378h-117.331231a53.332378 53.332378 0 0 1 0-106.664756H405.344418a53.332378 53.332378 0 0 0 53.332378-53.332377v-117.331232a53.332378 53.332378 0 0 1 106.664755 0V405.344418a53.332378 53.332378 0 0 0 53.332378 53.332377h117.331231a53.332378 53.332378 0 0 1 0 106.664756z" p-id="6627"/></svg>